<svg xmlns="http://www.w3.org/2000/svg" width="192" height="192" viewBox="0 0 192 192">
  <rect width="192" height="192" fill="#2563eb" rx="24"/>
  <g fill="white">
    <!-- Heart icon for medical theme -->
    <path d="M96 140c-1.5 0-3-0.5-4.2-1.5l-36-33c-8.4-7.7-13.8-18.7-13.8-30.5 0-11.3 9.2-20.5 20.5-20.5 6.8 0 13.2 3.4 17 9.1l6.5 9.7 6.5-9.7c3.8-5.7 10.2-9.1 17-9.1 11.3 0 20.5 9.2 20.5 20.5 0 11.8-5.4 22.8-13.8 30.5l-36 33c-1.2 1-2.7 1.5-4.2 1.5z" opacity="0.9"/>
    <!-- Plus symbol -->
    <rect x="84" y="75" width="24" height="6" rx="3"/>
    <rect x="93" y="66" width="6" height="24" rx="3"/>
  </g>
  <!-- Text GP for Geriatrics Platform -->
  <text x="96" y="165" font-family="Arial, sans-serif" font-size="24" font-weight="bold" fill="white" text-anchor="middle">GP</text>
</svg>