<svg xmlns="http://www.w3.org/2000/svg" width="512" height="512" viewBox="0 0 512 512">
  <rect width="512" height="512" fill="#2563eb" rx="64"/>
  <g fill="white">
    <!-- Heart icon for medical theme -->
    <path d="M256 380c-4 0-8-1.3-11.2-4l-96-88c-22.4-20.5-36.8-49.9-36.8-81.3 0-30.1 24.5-54.7 54.7-54.7 18.1 0 35.2 9.1 45.3 24.3l17.3 25.9 17.3-25.9c10.1-15.2 27.2-24.3 45.3-24.3 30.1 0 54.7 24.5 54.7 54.7 0 31.5-14.4 60.8-36.8 81.3l-96 88c-3.2 2.7-7.2 4-11.2 4z" opacity="0.9"/>
    <!-- Plus symbol -->
    <rect x="224" y="200" width="64" height="16" rx="8"/>
    <rect x="248" y="176" width="16" height="64" rx="8"/>
  </g>
  <!-- Text GP for Geriatrics Platform -->
  <text x="256" y="440" font-family="Arial, sans-serif" font-size="64" font-weight="bold" fill="white" text-anchor="middle">GP</text>
</svg>